<?xml version="1.0" encoding="UTF-8"?>
<svg version="1.1" xmlns="http://www.w3.org/2000/svg" width="150" height="200">
<path d="M0 0 C1.07109009 -0.0071553 2.14218018 -0.01431061 3.24572754 -0.02168274 C4.42600525 -0.02437164 5.60628296 -0.02706055 6.82232666 -0.02983093 C8.68099365 -0.03968773 8.68099365 -0.03968773 10.57720947 -0.04974365 C14.69309731 -0.06951476 18.80894613 -0.08114778 22.92486572 -0.09111023 C24.341881 -0.0951577 25.75889608 -0.09927462 27.17591095 -0.10346031 C33.83409446 -0.12251494 40.49226687 -0.13674453 47.1504724 -0.14507228 C54.83435125 -0.1548416 62.51794178 -0.18115167 70.20171905 -0.22157317 C76.14150923 -0.25174683 82.08121683 -0.26654239 88.02108216 -0.26985329 C91.56823909 -0.27220271 95.11508812 -0.28114807 98.66216278 -0.30631447 C102.62189426 -0.33395408 106.58124749 -0.32976017 110.54107666 -0.32279968 C111.71325745 -0.33560974 112.88543823 -0.3484198 114.09313965 -0.36161804 C120.35530084 -0.32144386 124.21091664 -0.11359376 128.94049072 4.14717102 C132.64530135 8.35263174 134.06223644 10.64813396 134.08766174 16.2066803 C134.0983947 17.81331543 134.0983947 17.81331543 134.10934448 19.45240784 C134.11203339 20.63268555 134.11472229 21.81296326 134.11749268 23.02900696 C134.12406387 24.26811829 134.13063507 25.50722961 134.1374054 26.78388977 C134.15717651 30.89977761 134.16880953 35.01562643 134.17877197 39.13154602 C134.18281944 40.5485613 134.18693636 41.96557637 134.19112206 43.38259125 C134.21017668 50.04077476 134.22440627 56.69894716 134.23273402 63.3571527 C134.24250334 71.04103155 134.26881341 78.72462208 134.30923492 86.40839934 C134.33940858 92.34818952 134.35420413 98.28789713 134.35751504 104.22776246 C134.35986445 107.77491939 134.36880982 111.32176842 134.39397621 114.86884308 C134.42161582 118.82857456 134.41742191 122.78792779 134.41046143 126.74775696 C134.42967651 128.50602814 134.42967651 128.50602814 134.44927979 130.29981995 C134.40910561 136.56198114 134.20125551 140.41759694 129.94049072 145.14717102 C125.88730168 148.71783756 123.59295875 150.26938202 118.22938538 150.28520203 C117.23546783 150.29065536 116.24155029 150.2961087 115.21751404 150.30172729 C113.57568901 150.30329079 113.57568901 150.30329079 111.9006958 150.30488586 C110.17611145 150.31250694 110.17611145 150.31250694 108.41668701 150.32028198 C105.91269004 150.33100451 103.40868337 150.33961726 100.90467262 150.34640121 C96.94135614 150.35816392 92.97814993 150.37761094 89.01487732 150.39952087 C77.74362109 150.46143761 66.47236903 150.51540211 55.20098877 150.54853821 C48.97814062 150.5669128 42.75543471 150.59588701 36.53269118 150.63654292 C33.24100702 150.65757129 29.94954044 150.67137579 26.65778542 150.67535019 C22.98073137 150.68025874 19.30420512 150.7034178 15.6272583 150.73066711 C14.54282944 150.72766098 13.45840057 150.72465485 12.34111023 150.72155762 C5.64022337 150.79529931 0.25213375 151.26283677 -4.99700928 155.83467102 C-6.58088776 159.28193595 -6.68869193 162.47104768 -6.05950928 166.14717102 C-4.26860777 169.86673569 -3.18720817 171.680537 0.65924072 173.27217102 C4.09845322 174.18929435 7.26604258 174.55485787 10.81549072 174.77217102 C12.83674072 174.89592102 14.85799072 175.01967102 16.94049072 175.14717102 C16.94049072 169.53717102 16.94049072 163.92717102 16.94049072 158.14717102 C30.80049072 158.14717102 44.66049072 158.14717102 58.94049072 158.14717102 C58.94049072 163.75717102 58.94049072 169.36717102 58.94049072 175.14717102 C66.47792488 175.08400719 74.01504336 175.00839024 81.55211544 174.91145611 C85.05272512 174.86691994 88.55322291 174.82762833 92.05401611 174.80073547 C96.08807949 174.76950785 100.12153608 174.71472701 104.15533447 174.65888977 C105.39943588 174.65249985 106.64353729 174.64610992 107.92533875 174.63952637 C119.55157524 174.44667417 119.55157524 174.44667417 129.37799072 168.89717102 C131.22488062 165.64664481 132.08568824 162.78008156 132.94049072 159.14717102 C133.27049072 159.14717102 133.60049072 159.14717102 133.94049072 159.14717102 C134.70423228 173.25517488 134.70423228 173.25517488 129.94049072 179.14717102 C124.52623487 183.43345691 120.6497287 184.27466945 113.88677979 184.26069641 C112.66581604 184.26062088 111.44485229 184.26054535 110.18688965 184.26046753 C108.87323425 184.25530624 107.55957886 184.25014496 106.20611572 184.24482727 C104.84419812 184.24296123 103.48227984 184.2415382 102.12036133 184.24053955 C98.54307183 184.23672905 94.9658232 184.22691134 91.3885498 184.21583557 C87.73529615 184.20558987 84.08203587 184.20103517 80.42877197 184.19599915 C73.2659908 184.18528771 66.10325171 184.16770284 58.94049072 184.14717102 C58.94049072 189.42717102 58.94049072 194.70717102 58.94049072 200.14717102 C55.71573597 198.21231817 53.02963699 196.54100235 50.17095947 194.22920227 C49.51031494 193.69746399 48.84967041 193.16572571 48.16900635 192.61787415 C47.15870361 191.7970636 47.15870361 191.7970636 46.12799072 190.95967102 C45.08868408 190.12145813 45.08868408 190.12145813 44.02838135 189.26631165 C42.33017739 187.89603672 40.63502479 186.52198168 38.94049072 185.14717102 C33.52244386 188.13390865 28.95300166 192.10310812 24.2041626 196.0280304 C23.55640869 196.55590149 22.90865479 197.08377258 22.24127197 197.62763977 C21.36209106 198.35309998 21.36209106 198.35309998 20.46514893 199.09321594 C18.94049072 200.14717102 18.94049072 200.14717102 16.94049072 200.14717102 C16.94049072 194.86717102 16.94049072 189.58717102 16.94049072 184.14717102 C15.65013916 184.18197571 14.3597876 184.2167804 13.03033447 184.25263977 C11.31289966 184.28079444 9.59545066 184.30809279 7.87799072 184.33467102 C7.03043213 184.35980774 6.18287354 184.38494446 5.30963135 184.4108429 C-1.70708774 184.49211763 -6.42601612 183.42953176 -11.87200928 178.70967102 C-15.64770887 174.28670864 -16.31031052 171.42623095 -16.32693481 165.59434509 C-16.33146593 164.93770886 -16.33599704 164.28107262 -16.34066546 163.60453832 C-16.35331795 161.40594966 -16.35168858 159.20760845 -16.35003662 157.00898743 C-16.35602135 155.43194256 -16.36282677 153.85490063 -16.37039185 152.27786255 C-16.38806464 147.99475964 -16.39274776 143.71173663 -16.39402342 139.42860079 C-16.39592276 135.85256969 -16.40328068 132.2765572 -16.41036761 128.70053327 C-16.42665398 120.26313991 -16.43153633 111.82578923 -16.43011475 103.38838196 C-16.42891318 94.68598392 -16.45001738 85.98383384 -16.48160207 77.28149855 C-16.50775707 69.80876264 -16.51848237 62.33610776 -16.51720393 54.86332643 C-16.51669407 50.40074027 -16.5223903 45.93837445 -16.54356003 41.47583389 C-16.56292946 37.27817605 -16.56307595 33.08094905 -16.54852676 28.88327599 C-16.54643595 27.34418165 -16.55115586 25.80506045 -16.56324768 24.26601219 C-16.57870907 22.16149105 -16.5693886 20.05845392 -16.5539856 17.95396423 C-16.5556199 16.18914924 -16.5556199 16.18914924 -16.55728722 14.38868141 C-15.77224698 9.27653019 -13.24862161 6.19472236 -9.43450928 2.83467102 C-5.97391376 0.37582683 -4.20465584 0.01923249 0 0 Z M59.94049072 23.14717102 C59.5337915 23.64781067 59.12709229 24.14845032 58.70806885 24.66426086 C54.40038076 29.79690271 49.84056012 33.83079657 44.44049072 37.77217102 C30.79456841 47.06515255 30.79456841 47.06515255 24.00299072 61.39717102 C23.6415735 66.93342577 24.68843646 72.19724066 25.6831665 77.6151886 C26.64005595 83.18492667 27.157807 88.71293508 27.44830322 94.35420227 C27.48600327 95.07106201 27.52370331 95.78792175 27.56254578 96.52650452 C27.74650249 100.14378927 27.90231894 103.76038004 28.02960205 107.38008118 C28.09186516 108.72824801 28.15458921 110.07639366 28.21783447 111.42451477 C28.28345581 113.22263611 28.28345581 113.22263611 28.35040283 115.05708313 C29.06438587 118.79596742 29.99920065 119.79828972 32.94049072 122.14717102 C35.52407951 122.74828307 35.52407951 122.74828307 38.37994385 122.66474915 C40.01183655 122.68366211 40.01183655 122.68366211 41.67669678 122.70295715 C42.84656128 122.69486023 44.01642578 122.68676331 45.22174072 122.67842102 C46.42737671 122.68224792 47.6330127 122.68607483 48.87518311 122.6900177 C51.42381627 122.69273928 53.97247726 122.68536107 56.52105713 122.6686554 C60.42582375 122.64725142 64.3287502 122.66845105 68.23345947 122.69404602 C70.70872396 122.69140279 73.1839873 122.68627792 75.65924072 122.67842102 C77.41403748 122.69056641 77.41403748 122.69056641 79.20428467 122.70295715 C80.29221313 122.69034851 81.3801416 122.67773987 82.5010376 122.66474915 C83.93522034 122.65997559 83.93522034 122.65997559 85.39837646 122.65510559 C88.69552947 121.9963083 89.88724 120.76169666 91.94049072 118.14717102 C92.62509359 114.98597713 92.62509359 114.98597713 92.66314697 111.42451477 C92.70914536 110.44402412 92.70914536 110.44402412 92.756073 109.44372559 C92.8205724 108.04713702 92.87704638 106.65015856 92.92617798 105.25294495 C93.05494791 101.61802098 93.24166339 97.98631606 93.43267822 94.35420227 C93.46945175 93.64008179 93.50622528 92.9259613 93.54411316 92.19020081 C93.864215 86.46667891 94.59518934 80.90504627 95.62799072 75.27217102 C97.38263277 65.28726864 97.63019626 58.92080541 91.78839111 50.43916321 C88.7336034 46.65024168 85.046491 43.92880314 81.12799072 41.08467102 C79.52472419 39.88120865 77.92314226 38.67549855 76.32330322 37.46748352 C75.1848999 36.61331848 75.1848999 36.61331848 74.02349854 35.74189758 C69.00445546 31.89937656 64.39908079 27.62133151 59.94049072 23.14717102 Z " fill="#FFFFFF" transform="translate(16.05950927734375,-0.1471710205078125)"/>
<path d="M0 0 C5.07397804 3.15409446 9.58394905 6.87636422 14.17578125 10.69140625 C17.41345469 13.33796919 20.74461707 15.83615507 24.125 18.296875 C27.15531987 21.04941555 28.81179158 23.60563868 29.36328125 27.69140625 C29.34652344 28.63886719 29.32976562 29.58632813 29.3125 30.5625 C29.30863281 31.49191406 29.30476563 32.42132813 29.30078125 33.37890625 C29.04565014 36.4504198 28.60128516 39.32924363 28.05078125 42.35546875 C26.70546528 50.11950232 26.30880113 57.8929291 25.875 65.75 C25.58625 70.7825 25.2975 75.815 25 81 C8.83 81 -7.34 81 -24 81 C-24.33 73.74 -24.66 66.48 -25 59 C-25.45514014 54.87779807 -25.92793012 50.83675148 -26.5625 46.75 C-29.40269612 28.01791583 -29.40269612 28.01791583 -26.37890625 22.1796875 C-23.83594918 18.78072682 -21.37387919 16.60520564 -17.9375 14.125 C-16.78527197 13.27765253 -15.63425342 12.42865823 -14.484375 11.578125 C-13.90623047 11.15466797 -13.32808594 10.73121094 -12.73242188 10.29492188 C-8.36033977 7.02695069 -4.199753 3.48436421 0 0 Z M-5 21 C-9.96657197 24.09031145 -13.12882831 26.38648493 -15 32 C-15.58060742 37.92219564 -14.49056625 42.2391981 -11 47 C-7.57335957 50.16919853 -4.05168715 51.25142426 0.5625 51.5 C5.00418952 51.28093708 7.59372257 49.93098291 11 47 C13.32277416 44.3908613 13.32277416 44.3908613 15 42 C14.67 41.34 14.34 40.68 14 40 C13.43152344 40.17917969 12.86304687 40.35835937 12.27734375 40.54296875 C8.24442304 41.65387345 5.10714987 42.46956536 1.125 40.875 C-1.95249276 39.02850434 -3.21306393 38.0277166 -5 35 C-5.29296875 32.30859375 -5.29296875 32.30859375 -5.1875 29.4375 C-5.16042969 28.48746094 -5.13335937 27.53742187 -5.10546875 26.55859375 C-5.07066406 25.71425781 -5.03585938 24.86992188 -5 24 C-5 23.01 -5 22.02 -5 21 Z M10 24 C8.35 24.33 6.7 24.66 5 25 C4.67 26.98 4.34 28.96 4 31 C5.98 31.99 7.96 32.98 10 34 C10.33 33.01 10.66 32.02 11 31 C11.99 30.34 12.98 29.68 14 29 C13.34 28.67 12.68 28.34 12 28 C10.875 25.9375 10.875 25.9375 10 24 Z " fill="#FFFFFF" transform="translate(76,34)"/>
</svg>
