<?xml version="1.0" encoding="UTF-8"?>
<svg version="1.1" xmlns="http://www.w3.org/2000/svg" width="200" height="200">
<path d="M0 0 C3.44136963 0.27736238 4.04413736 0.77249352 6.81542969 3.1965332 C7.7029027 4.31816866 8.57076039 5.45551174 9.421875 6.60498047 C10.4337847 7.8376514 11.45280749 9.06450966 12.47802734 10.28613281 C13.275242 11.24262726 13.275242 11.24262726 14.08856201 12.21844482 C21.61703995 21.06781512 28.51515388 28.5863477 40.6015625 29.57373047 C45.46696118 29.8282289 50.27096274 29.64412336 55.12792969 29.30981445 C55.87964447 29.25833755 56.63135925 29.20686066 57.40585327 29.15382385 C59.46058353 28.98629475 61.50908908 28.74688545 63.55615234 28.50292969 C67 28.73388672 67 28.73388672 69.97851562 30.75537109 C72.61356807 34.63793629 72.30831982 36.52857355 71.7578125 41.14794922 C71.63671648 42.63318164 71.52587901 44.11927786 71.42407227 45.60595703 C71.34396408 46.76979919 71.34396408 46.76979919 71.26223755 47.95715332 C70.67585151 58.21923499 70.50591792 67.65587187 77.30554199 75.91915894 C81.39189766 80.38602286 85.8007644 84.3827076 90.44775391 88.25585938 C91.06497818 88.77385101 91.68220245 89.29184265 92.31813049 89.82553101 C93.49210986 90.78926032 94.68860359 91.72643498 95.9092865 92.63027954 C98.10236585 94.36551244 99.76423911 95.93267675 100.56672668 98.65985107 C100.74832168 100.91298828 100.63847598 102.56408952 100 104.73388672 C98.03815498 106.97677328 96.46924495 108.42287729 94.12890625 110.15576172 C92.89623532 111.16767142 91.66937706 112.18669421 90.44775391 113.21191406 C89.81009094 113.7433905 89.17242798 114.27486694 88.51544189 114.82244873 C79.6660716 122.35092667 72.14753902 129.2490406 71.16015625 141.33544922 C70.90565782 146.2008479 71.08976335 151.00484945 71.42407227 155.86181641 C71.47554916 156.61353119 71.52702606 157.36524597 71.58006287 158.13973999 C71.74759197 160.19447025 71.98700127 162.2429758 72.23095703 164.29003906 C72 167.73388672 72 167.73388672 69.97851562 170.71240234 C66.09595043 173.34745479 64.20531317 173.04220654 59.5859375 172.49169922 C58.10070508 172.3706032 56.61460886 172.25976573 55.12792969 172.15795898 C54.35203491 172.10455353 53.57614014 172.05114807 52.7767334 171.99612427 C42.51465173 171.40973823 33.07801484 171.23980464 24.81472778 178.03942871 C20.34786386 182.12578437 16.35117912 186.53465112 12.47802734 191.18164062 C11.96003571 191.7988649 11.44204407 192.41608917 10.90835571 193.05201721 C9.94462639 194.22599658 9.00745174 195.42249031 8.10360718 196.64317322 C6.36837428 198.83625257 4.80120997 200.49812583 2.07403564 201.3006134 C-0.17910156 201.4822084 -1.8302028 201.37236269 -4 200.73388672 C-6.24288657 198.7720417 -7.68899057 197.20313167 -9.421875 194.86279297 C-10.4337847 193.63012204 -11.45280749 192.40326377 -12.47802734 191.18164062 C-13.00950378 190.54397766 -13.54098022 189.9063147 -14.08856201 189.24932861 C-21.61703995 180.39995832 -28.51515388 172.88142573 -40.6015625 171.89404297 C-45.46696118 171.63954454 -50.27096274 171.82365007 -55.12792969 172.15795898 C-56.25550186 172.23517433 -56.25550186 172.23517433 -57.40585327 172.31394958 C-59.46058353 172.48147869 -61.50908908 172.72088799 -63.55615234 172.96484375 C-67 172.73388672 -67 172.73388672 -69.97851562 170.71240234 C-72.61356807 166.82983715 -72.30831982 164.93919989 -71.7578125 160.31982422 C-71.63671648 158.8345918 -71.52587901 157.34849558 -71.42407227 155.86181641 C-71.37066681 155.08592163 -71.31726135 154.31002686 -71.26223755 153.51062012 C-70.67585151 143.24853845 -70.50591792 133.81190156 -77.30554199 125.5486145 C-81.39189766 121.08175058 -85.8007644 117.08506584 -90.44775391 113.21191406 C-91.06497818 112.69392242 -91.68220245 112.17593079 -92.31813049 111.64224243 C-93.49210986 110.67851311 -94.68860359 109.74133846 -95.9092865 108.8374939 C-98.10236585 107.102261 -99.76423911 105.53509669 -100.56672668 102.80792236 C-100.74832168 100.55478516 -100.63847598 98.90368392 -100 96.73388672 C-98.03815498 94.49100015 -96.46924495 93.04489614 -94.12890625 91.31201172 C-92.89623532 90.30010202 -91.66937706 89.28107922 -90.44775391 88.25585938 C-89.49125946 87.45864471 -89.49125946 87.45864471 -88.51544189 86.64532471 C-79.6660716 79.11684676 -72.14753902 72.21873284 -71.16015625 60.13232422 C-70.90565782 55.26692554 -71.08976335 50.46292398 -71.42407227 45.60595703 C-71.47554916 44.85424225 -71.52702606 44.10252747 -71.58006287 43.32803345 C-71.74759197 41.27330319 -71.98700127 39.22479764 -72.23095703 37.17773438 C-72 33.73388672 -72 33.73388672 -69.97851562 30.75537109 C-66.09595043 28.12031865 -64.20531317 28.4255669 -59.5859375 28.97607422 C-58.10070508 29.09717024 -56.61460886 29.20800771 -55.12792969 29.30981445 C-54.35203491 29.36321991 -53.57614014 29.41662537 -52.7767334 29.47164917 C-42.51465173 30.05803521 -33.07801484 30.22796879 -24.81472778 23.42834473 C-20.34786386 19.34198906 -16.35117912 14.93312232 -12.47802734 10.28613281 C-11.96003571 9.66890854 -11.44204407 9.05168427 -10.90835571 8.41575623 C-9.94462639 7.24177686 -9.00745174 6.04528313 -8.10360718 4.82460022 C-5.69147756 1.77602291 -3.83230309 0.30887025 0 0 Z M-1 18.73388672 C-2.49019433 20.42942279 -3.91878512 22.17919869 -5.3203125 23.94873047 C-21.48044439 43.30070401 -21.48044439 43.30070401 -33.7109375 44.55029297 C-41.47402208 45.08889503 -49.27898198 44.60685132 -57 43.73388672 C-56.90460937 44.57757813 -56.80921875 45.42126953 -56.7109375 46.29052734 C-54.31814812 71.92954374 -54.31814812 71.92954374 -61.85391235 81.4354248 C-67.86398247 88.26023391 -74.82494287 94.17259677 -82 99.73388672 C-80.48631892 103.56661516 -78.25592496 105.32481693 -75.02734375 107.81201172 C-57.4820323 122.38851493 -57.4820323 122.38851493 -56.32421875 134.30419922 C-55.80147438 142.11238621 -56.2268196 149.95660156 -57 157.73388672 C-55.73446289 157.59080078 -55.73446289 157.59080078 -54.44335938 157.44482422 C-28.80434297 155.05203484 -28.80434297 155.05203484 -19.29846191 162.58779907 C-12.47365281 168.59786919 -6.56128995 175.55882959 -1 182.73388672 C2.83272844 181.22020564 4.59093021 178.98981168 7.078125 175.76123047 C21.65462821 158.21591902 21.65462821 158.21591902 33.5703125 157.05810547 C41.3784995 156.5353611 49.22271484 156.96070632 57 157.73388672 C56.85691406 156.46834961 56.85691406 156.46834961 56.7109375 155.17724609 C54.31814812 129.53822969 54.31814812 129.53822969 61.85391235 120.03234863 C67.86398247 113.20753953 74.82494287 107.29517667 82 101.73388672 C80.48631892 97.90115828 78.25592496 96.1429565 75.02734375 93.65576172 C57.4820323 79.0792585 57.4820323 79.0792585 56.32421875 67.16357422 C55.80147438 59.35538722 56.2268196 51.51117188 57 43.73388672 C55.73446289 43.87697266 55.73446289 43.87697266 54.44335938 44.02294922 C28.76054081 46.41982648 28.76054081 46.41982648 19.35003662 38.87997437 C13.26893288 33.46743754 7.96946124 27.29347629 2.92236328 20.92114258 C2.2879834 20.19934814 1.65360352 19.47755371 1 18.73388672 C0.34 18.73388672 -0.32 18.73388672 -1 18.73388672 Z " fill="#FFFFFF" transform="translate(100,-0.73388671875)"/>
<path d="M0 0 C3.70358671 1.19700146 5.64055348 4.12020737 8.00610352 7.06567383 C11.98043943 11.57253628 14.86463832 14.30867702 21.00976562 14.70458984 C22.91757511 14.69129094 24.82407329 14.58575427 26.72875977 14.47583008 C29.94360352 14.62817383 29.94360352 14.62817383 32.38110352 16.19067383 C34.50253307 19.50010394 34.10587665 21.67096844 33.88110352 25.56567383 C33.84694778 30.46552437 34.48212044 33.57772796 37.88891602 37.22192383 C39.65512002 38.93342996 41.45360854 40.5235143 43.37109375 42.06347656 C47.60689225 45.58637112 47.60689225 45.58637112 48.57177734 48.57177734 C48.83757458 51.66833351 48.62607023 53.73129124 46.71582031 56.24169922 C45.04058632 57.81447874 43.29750354 59.25197254 41.50610352 60.69067383 C36.99924106 64.66500974 34.26310032 67.54920863 33.8671875 73.69433594 C33.8804864 75.60214542 33.98602307 77.5086436 34.09594727 79.41333008 C33.94360352 82.62817383 33.94360352 82.62817383 32.38110352 85.06567383 C29.07167341 87.18710338 26.90080891 86.79044696 23.00610352 86.56567383 C18.10625297 86.53151809 14.99404938 87.16669075 11.34985352 90.57348633 C9.63834738 92.33969033 8.04826305 94.13817885 6.50830078 96.05566406 C2.98540622 100.29146257 2.98540622 100.29146257 0 101.25634766 C-3.09655617 101.52214489 -5.1595139 101.31064054 -7.66992188 99.40039062 C-9.2427014 97.72515664 -10.6801952 95.98207385 -12.11889648 94.19067383 C-16.0932324 89.68381137 -18.97743129 86.94767063 -25.12255859 86.55175781 C-27.03036808 86.56505672 -28.93686626 86.67059339 -30.84155273 86.78051758 C-34.05639648 86.62817383 -34.05639648 86.62817383 -36.49389648 85.06567383 C-38.61532604 81.75624372 -38.21866962 79.58537922 -37.99389648 75.69067383 C-37.95974075 70.79082329 -38.59491341 67.67861969 -42.00170898 64.03442383 C-43.76791299 62.3229177 -45.56640151 60.73283336 -47.48388672 59.19287109 C-51.71968522 55.66997653 -51.71968522 55.66997653 -52.68457031 52.68457031 C-52.95036755 49.58801414 -52.7388632 47.52505641 -50.82861328 45.01464844 C-49.15337929 43.44186891 -47.41029651 42.00437512 -45.61889648 40.56567383 C-41.11203403 36.59133791 -38.37589329 33.70713902 -37.97998047 27.56201172 C-37.99327937 25.65420223 -38.09881604 23.74770405 -38.20874023 21.84301758 C-38.05639648 18.62817383 -38.05639648 18.62817383 -36.49389648 16.19067383 C-33.18446638 14.06924427 -31.01360188 14.46590069 -27.11889648 14.69067383 C-22.21904594 14.72482957 -19.10684235 14.08965691 -15.46264648 10.68286133 C-13.75114035 8.91665733 -12.16105602 7.1181688 -10.62109375 5.20068359 C-7.42123747 1.35329441 -5.16465909 -0.44331575 0 0 Z M-5.15014648 20.56176758 C-5.94420898 21.38805664 -6.73827148 22.2143457 -7.55639648 23.06567383 C-11.37827874 27.03025624 -13.21542662 28.64407684 -18.68139648 29.19067383 C-19.49866211 29.27446289 -20.31592773 29.35825195 -21.15795898 29.44458008 C-21.78444336 29.50516602 -22.41092773 29.56575195 -23.05639648 29.62817383 C-23.04286133 30.46348633 -23.04286133 30.46348633 -23.02905273 31.31567383 C-23.30466672 38.40973804 -26.06303198 41.80925001 -31.05639648 46.62817383 C-31.62616211 47.19793945 -32.19592773 47.76770508 -32.78295898 48.35473633 C-33.20319336 48.7749707 -33.62342773 49.19520508 -34.05639648 49.62817383 C-32.66006542 52.81377335 -31.01082156 54.86761228 -28.49389648 57.25317383 C-25.00753763 60.5728253 -23.97397889 62.45234979 -23.49389648 67.25317383 C-23.41010742 68.07043945 -23.32631836 68.88770508 -23.23999023 69.72973633 C-23.1794043 70.3562207 -23.11881836 70.98270508 -23.05639648 71.62817383 C-22.45053711 71.5843457 -21.84467773 71.54051758 -21.22045898 71.49536133 C-16.55700959 71.5097104 -13.89613488 71.96205702 -10.16577148 74.92114258 C-7.69868773 77.41994598 -5.33493563 79.95695027 -3.05639648 82.62817383 C0.37277957 81.18550285 2.17257078 79.37463986 4.56860352 76.56567383 C8.50164339 72.46195487 11.44717569 71.70037691 17.03735352 71.56567383 C17.66641602 71.58629883 18.29547852 71.60692383 18.94360352 71.62817383 C18.89526367 70.71938477 18.89526367 70.71938477 18.84594727 69.79223633 C18.93069724 63.67140518 20.28603002 60.68194327 24.50610352 56.19067383 C25.33239258 55.38758789 26.15868164 54.58450195 27.01000977 53.75708008 C29.27977086 51.73737339 29.27977086 51.73737339 28.94360352 48.62817383 C27.51693875 47.21880197 26.02688667 45.87293049 24.50610352 44.56567383 C20.92508011 41.1530371 19.31882754 39.03595952 18.88110352 34.06567383 C18.86084085 32.58649923 18.86650004 31.10547647 18.94360352 29.62817383 C18.10829102 29.64170898 18.10829102 29.64170898 17.25610352 29.65551758 C9.32840035 29.3475156 5.54105809 25.50640535 0.34204102 19.90161133 C-2.07053053 17.70468863 -2.84433442 18.43233293 -5.15014648 20.56176758 Z " fill="#FFFFFF" transform="translate(102.056396484375,49.371826171875)"/>
</svg>
