<?xml version="1.0" encoding="UTF-8"?>
<svg version="1.1" xmlns="http://www.w3.org/2000/svg" width="96" height="96">
<path d="M0 0 C0.65404312 -0.0049649 1.30808624 -0.00992981 1.98194885 -0.01504517 C4.14447078 -0.02964268 6.30691933 -0.03646515 8.46948242 -0.04199219 C9.97539776 -0.04774616 11.48131308 -0.05350386 12.98722839 -0.05926514 C16.14546042 -0.06976863 19.30366703 -0.07561538 22.46191406 -0.07910156 C26.50035809 -0.08458127 30.5384641 -0.10860056 34.57680225 -0.13707352 C37.68842028 -0.15573824 40.79995755 -0.16090755 43.91162682 -0.16243744 C45.39991794 -0.16545647 46.88820789 -0.17345964 48.37644386 -0.18662262 C50.46346024 -0.20376217 52.5496597 -0.2017841 54.63671875 -0.1953125 C56.41517937 -0.20078094 56.41517937 -0.20078094 58.22956848 -0.20635986 C63.91977676 0.43061382 67.69657132 2.83656269 71.32495117 7.16113281 C71.90889648 7.84175781 72.4928418 8.52238281 73.09448242 9.22363281 C75.79065147 12.90765443 75.64806204 16.22587566 75.67358398 20.64868164 C75.68103134 21.62974632 75.68103134 21.62974632 75.68862915 22.63063049 C75.70322666 24.79315242 75.71004914 26.95560097 75.71557617 29.11816406 C75.72133014 30.6240794 75.72708785 32.12999472 75.73284912 33.63591003 C75.74335262 36.79414206 75.74919936 39.95234867 75.75268555 43.1105957 C75.75816526 47.14903973 75.78218454 51.18714574 75.8106575 55.22548389 C75.82932223 58.33710192 75.83449154 61.44863919 75.83602142 64.56030846 C75.83904045 66.04859958 75.84704363 67.53688953 75.8602066 69.0251255 C75.87734616 71.11214188 75.87536808 73.19834134 75.86889648 75.28540039 C75.87436493 77.06386101 75.87436493 77.06386101 75.87994385 78.87825012 C75.24297017 84.5684584 72.83702129 88.34525296 68.51245117 91.97363281 C67.83182617 92.55757813 67.15120117 93.14152344 66.44995117 93.74316406 C62.76592955 96.43933311 59.44770833 96.29674368 55.02490234 96.32226562 C54.37085922 96.32723053 53.7168161 96.33219543 53.04295349 96.33731079 C50.88043156 96.3519083 48.71798302 96.35873078 46.55541992 96.36425781 C45.04950458 96.37001179 43.54358926 96.37576949 42.03767395 96.38153076 C38.87944193 96.39203426 35.72123531 96.397881 32.56298828 96.40136719 C28.52454426 96.4068469 24.48643824 96.43086618 20.44810009 96.45933914 C17.33648207 96.47800387 14.22494479 96.48317318 11.11327553 96.48470306 C9.62498441 96.48772209 8.13669445 96.49572527 6.64845848 96.50888824 C4.5614421 96.5260278 2.47524265 96.52404972 0.38818359 96.51757812 C-0.79745682 96.52122375 -1.98309723 96.52486938 -3.20466614 96.52862549 C-8.89487442 95.89165181 -12.67166897 93.48570294 -16.30004883 89.16113281 C-16.88399414 88.48050781 -17.46793945 87.79988281 -18.06958008 87.09863281 C-20.76574913 83.41461119 -20.6231597 80.09638997 -20.64868164 75.67358398 C-20.65364655 75.01954086 -20.65861145 74.36549774 -20.66372681 73.69163513 C-20.67832432 71.5291132 -20.68514679 69.36666466 -20.69067383 67.20410156 C-20.6964278 65.69818622 -20.7021855 64.1922709 -20.70794678 62.68635559 C-20.71845027 59.52812357 -20.72429702 56.36991695 -20.7277832 53.21166992 C-20.73326291 49.1732259 -20.7572822 45.13511988 -20.78575516 41.09678173 C-20.80441988 37.98516371 -20.80958919 34.87362643 -20.81111908 31.76195717 C-20.81413811 30.27366605 -20.82214129 28.78537609 -20.83530426 27.29714012 C-20.85244381 25.21012374 -20.85046574 23.12392429 -20.84399414 21.03686523 C-20.84763977 19.85122482 -20.8512854 18.66558441 -20.8550415 17.4440155 C-20.21806782 11.75380722 -17.81211895 7.97701267 -13.48754883 4.34863281 C-12.80692383 3.7646875 -12.12629883 3.18074219 -11.42504883 2.57910156 C-7.74102721 -0.11706748 -4.42280598 0.02552194 0 0 Z " fill="#FFFFFF" transform="translate(20.487548828125,-0.1611328125)"/>
</svg>
