<?xml version="1.0" encoding="UTF-8"?>
<svg version="1.1" xmlns="http://www.w3.org/2000/svg" width="200" height="148">
<path d="M0 0 C2.97 0 5.94 0 9 0 C8.67314209 0.98057373 8.34628418 1.96114746 8.00952148 2.97143555 C7.68270638 3.95190353 7.68270638 3.95190353 7.34928894 4.95217896 C6.85633429 6.43101192 6.36334207 7.90983235 5.87031555 9.38864136 C4.50740239 13.47682336 3.1451617 17.5652274 1.78417969 21.65405273 C-0.58205516 28.76102532 -2.94929112 35.86735924 -5.35546875 42.9609375 C-5.84648071 44.41367065 -5.84648071 44.41367065 -6.34741211 45.89575195 C-6.93435961 47.62992224 -7.52482846 49.36290604 -8.11938477 51.09448242 C-9.16100853 54.17978585 -10 56.71957571 -10 60 C9.56926137 68.98418698 29.14875045 77.93662354 48.85986328 86.60644531 C52.08207528 88.03642402 55.28962552 89.49603393 58.49609375 90.9609375 C60.55981983 91.89079369 62.62361864 92.8204885 64.6875 93.75 C65.61401367 94.18103027 66.54052734 94.61206055 67.49511719 95.05615234 C73.86492899 97.89725325 78.93466644 99.41193883 85.68383789 97.06787109 C88.89809816 95.73672608 92.04007947 94.29472878 95.1875 92.8125 C96.98976895 91.98727129 98.7920481 91.16206421 100.59484863 90.33799744 C102.47641439 89.47548979 104.3548714 88.60648548 106.23291016 87.73632812 C112.25367041 84.95276743 118.31791623 82.26580443 124.375 79.5625 C126.7724033 78.48757643 129.16953642 77.41205007 131.56640625 76.3359375 C138.82535817 73.07800565 146.08566977 69.82311282 153.34625244 66.56881714 C156.45614392 65.17489263 159.56595962 63.78079909 162.67578125 62.38671875 C164.45052083 61.59114583 166.22526042 60.79557292 168 60 C166.56506238 52.85035606 164.47028889 46.10473608 162.0859375 39.21875 C161.5241832 37.57670593 161.5241832 37.57670593 160.95108032 35.90148926 C159.76357814 32.4327549 158.56960889 28.96629256 157.375 25.5 C156.1744102 22.00475774 154.97517789 18.50905724 153.77749634 15.01281738 C153.03382154 12.84312099 152.28824307 10.67407601 151.5406189 8.5057373 C151.2067215 7.53382446 150.8728241 6.56191162 150.52880859 5.56054688 C150.23283783 4.7016687 149.93686707 3.84279053 149.63192749 2.95788574 C149 1 149 1 149 0 C151.97 0 154.94 0 158 0 C160.02805861 5.79368059 162.05433281 11.58798135 164.07910156 17.3828125 C164.76515951 19.34554037 165.45166753 21.308111 166.13867188 23.27050781 C168.43917176 29.84240368 170.72615325 36.41883531 173 43 C173.30707886 43.88578735 173.61415771 44.77157471 173.93054199 45.6842041 C174.79136218 48.1751799 175.64331585 50.66899339 176.4921875 53.1640625 C176.87590012 54.27060684 176.87590012 54.27060684 177.2673645 55.39950562 C178.42117948 58.82255574 179 61.34189717 179 65 C168.77 69.62 158.54 74.24 148 79 C150.31 80.65 152.62 82.3 155 84 C155.54668442 87.01457411 155.69355475 88.87209111 155.4375 91.8125 C155.40591797 92.50537109 155.37433594 93.19824219 155.34179688 93.91210938 C155.25983369 95.60991824 155.13427907 97.30552603 155 99 C151.2935355 97.92817909 147.97287672 96.52635463 144.57421875 94.73046875 C143.77693359 94.31732422 142.97964844 93.90417969 142.15820312 93.47851562 C140.51213291 92.61839514 138.8764585 91.73807765 137.25195312 90.83789062 C132.73240068 88.54357237 129.96534531 87.54253742 125.01953125 89.11328125 C122.37894916 90.18096297 121.03899156 90.96100844 119 93 C119.5053125 93.268125 120.010625 93.53625 120.53125 93.8125 C122.62561065 95.07576515 124.31380754 96.22083453 126 98 C126.63902812 100.90516143 126.35678866 102.99278126 126 106 C126.70125 106.26047119 127.4025 106.52094238 128.125 106.78930664 C131.24595861 108.10357581 134.07161976 109.6705742 137 111.37109375 C138.134375 112.02787109 139.26875 112.68464844 140.4375 113.36132812 C141.62502495 114.0533426 142.81252474 114.74540027 144 115.4375 C145.18732732 116.12594893 146.37482583 116.81410273 147.5625 117.50195312 C150.71176955 119.32888734 153.85928295 121.15840258 157 123 C157.9386792 123.4935498 158.8773584 123.98709961 159.84448242 124.49560547 C160.55580322 124.99205566 161.26712402 125.48850586 162 126 C162.38060051 128.78599571 162.47962905 130.93372751 162.3125 133.6875 C162.28994141 134.38939453 162.26738281 135.09128906 162.24414062 135.81445312 C162.18531647 137.5438833 162.09563389 139.27221438 162 141 C158.83491951 140.33727883 156.25060352 139.22615673 153.38671875 137.734375 C152.48018555 137.26306152 151.57365234 136.79174805 150.63964844 136.30615234 C149.66543945 135.79262207 148.69123047 135.2790918 147.6875 134.75 C146.16237793 133.95070068 146.16237793 133.95070068 144.60644531 133.13525391 C137.41476046 129.34019583 130.31536758 125.39950055 123.25 121.375 C119.50189313 119.24664269 115.75210415 117.12130282 112 115 C111.09040527 114.48501953 110.18081055 113.97003906 109.24365234 113.43945312 C106.65133925 111.98277095 104.04710505 110.55041882 101.4375 109.125 C100.67018555 108.68978027 99.90287109 108.25456055 99.11230469 107.80615234 C95.589675 105.9090481 93.66462235 104.96574112 89.58984375 105.17578125 C87.05182508 105.88560675 87.05182508 105.88560675 85.125 107.0625 C81.28546501 108.7564125 77.00809943 108.75200432 73.1015625 107.2890625 C72.51117188 107.00804688 71.92078125 106.72703125 71.3125 106.4375 C67.58878644 104.82154883 66.76922329 104.90146546 63 106 C61.02238142 106.92189608 59.0775753 107.91569948 57.16015625 108.95703125 C56.02529785 109.56925537 54.89043945 110.18147949 53.72119141 110.81225586 C52.50152565 111.47881738 51.28196415 112.14556972 50.0625 112.8125 C48.80416421 113.49475809 47.5455347 114.1764747 46.28662109 114.85766602 C43.11718102 116.57459811 39.9519792 118.2991886 36.78778076 120.02575684 C34.11274362 121.48350641 31.4332078 122.93291941 28.75390625 124.3828125 C18.63960232 129.85131231 18.63960232 129.85131231 8.63671875 135.51953125 C7.9823584 135.89988525 7.32799805 136.28023926 6.65380859 136.67211914 C4.9587234 137.6644025 3.27005828 138.66763159 1.58203125 139.671875 C-1 141 -1 141 -4 141 C-4 136.05 -4 131.1 -4 126 C-2.2159375 124.97519531 -0.431875 123.95039063 1.40625 122.89453125 C3.1605432 121.88511651 4.91483 120.87569062 6.66894531 119.8659668 C7.87501815 119.17207289 9.08139105 118.47870025 10.28808594 117.78588867 C18.58319311 113.03185756 18.58319311 113.03185756 26.71875 108.01171875 C30 106 30 106 32 106 C31.855625 104.783125 31.71125 103.56625 31.5625 102.3125 C31.52755208 99.50168874 31.59800839 98.42415656 33.55859375 96.35546875 C35.32839321 95.119814 37.0940001 94.01134688 39 93 C35.74321088 90.13402558 32.38871935 88.105519 28 88 C23.83559618 89.34973966 20.05492674 91.34078681 16.1875 93.375 C14.1198885 94.42723253 12.05094471 95.47685262 9.98046875 96.5234375 C8.61764771 97.2337915 8.61764771 97.2337915 7.22729492 97.95849609 C5 99 5 99 3 99 C2.80984605 96.60043821 2.67205394 94.21597931 2.5625 91.8125 C2.50384766 91.13896484 2.44519531 90.46542969 2.38476562 89.77148438 C2.31640625 87.76953125 2.31640625 87.76953125 3 84 C5.31 82.35 7.62 80.7 10 79 C-5.345 72.07 -5.345 72.07 -21 65 C-20.30855488 60.15988415 -19.68635416 56.57221467 -18.15820312 52.09643555 C-17.78111206 50.98225754 -17.404021 49.86807953 -17.01550293 48.72013855 C-16.60819946 47.53761002 -16.200896 46.35508148 -15.78125 45.13671875 C-15.36331177 43.90838821 -14.94537354 42.68005768 -14.51477051 41.414505 C-13.63416979 38.8270513 -12.74963327 36.24099228 -11.86181641 33.65600586 C-10.72333753 30.34114048 -9.59151703 27.02405283 -8.46219635 23.70605755 C-7.38314388 20.53639397 -6.30106172 17.36777108 -5.21875 14.19921875 C-4.6077948 12.41024422 -4.6077948 12.41024422 -3.98449707 10.58512878 C-3.60740601 9.48671158 -3.23031494 8.38829437 -2.84179688 7.2565918 C-2.50950073 6.28731247 -2.17720459 5.31803314 -1.83483887 4.31938171 C-1 2 -1 2 0 0 Z " fill="#FFFFFF" transform="translate(21,7)"/>
<path d="M0 0 C2.59217774 7.75335452 5.18273082 15.50724915 7.77121639 23.26183701 C8.97322648 26.86265055 10.17579355 30.46327606 11.37963867 34.06347656 C12.54157117 37.5384022 13.70203383 41.01381551 14.86148262 44.48957062 C15.30390768 45.81499932 15.74686047 47.14025199 16.19035149 48.4653244 C16.81181367 50.32244357 17.43121966 52.18025044 18.05053711 54.03808594 C18.40361435 55.09509705 18.75669159 56.15210815 19.12046814 57.2411499 C19.8359361 59.48537656 20.46717519 61.7070237 21 64 C3.60778249 71.99849116 -13.8007332 79.96110569 -31.28112793 87.76538086 C-32.83134016 88.4579344 -34.38091259 89.15192201 -35.92980957 89.84741211 C-38.11015641 90.82578348 -40.29297502 91.79841789 -42.4765625 92.76953125 C-43.42153091 93.19514091 -43.42153091 93.19514091 -44.3855896 93.62934875 C-49.21589484 95.76550237 -53.9250478 97.30834927 -59 99 C-59 75.57 -59 52.14 -59 28 C-37.02147933 16.43235754 -37.02147933 16.43235754 -30.15625 13.0859375 C-29.36899536 12.70055817 -28.58174072 12.31517883 -27.77062988 11.91812134 C-26.15561986 11.12892934 -24.53987001 10.34124933 -22.92333984 9.55517578 C-20.44176872 8.34664114 -17.96505502 7.12848731 -15.48828125 5.91015625 C-13.8987201 5.134837 -12.30888724 4.36007453 -10.71875 3.5859375 C-9.98450806 3.22358002 -9.25026611 2.86122253 -8.49377441 2.48788452 C-3.34343574 0 -3.34343574 0 0 0 Z " fill="#FFFFFF" transform="translate(162,0)"/>
<path d="M0 0 C3.31793719 0.56986402 6.10387124 1.35926966 9.125 2.83837891 C9.90351318 3.21612457 10.68202637 3.59387024 11.48413086 3.98306274 C12.31436768 4.39341766 13.14460449 4.80377258 14 5.2265625 C15.30819702 5.86541885 15.30819702 5.86541885 16.64282227 6.5171814 C18.48995076 7.42065831 20.33570602 8.32694739 22.18017578 9.23583984 C24.95947726 10.60503685 27.74296002 11.96539204 30.52734375 13.32421875 C32.33098694 14.20780734 34.13437999 15.09190675 35.9375 15.9765625 C37.15856445 16.5738768 37.15856445 16.5738768 38.40429688 17.18325806 C45.37510327 20.62350404 52.14084183 24.30660714 59 28 C59 51.43 59 74.86 59 99 C48.87555934 95.62518645 48.87555934 95.62518645 45.58300781 94.12158203 C44.83546234 93.78294632 44.08791687 93.44431061 43.31771851 93.09541321 C42.53740265 92.73650497 41.75708679 92.37759674 40.953125 92.0078125 C40.11101471 91.62501633 39.26890442 91.24222015 38.40127563 90.8478241 C35.68232059 89.61092715 32.96618666 88.36796266 30.25 87.125 C28.37409542 86.27056191 26.49795426 85.41664305 24.62158203 84.56323242 C21.79284939 83.27664246 18.9642424 81.98978712 16.13638306 80.70127869 C7.7307116 76.87183396 -0.69314351 73.08387023 -9.125 69.3125 C-10.35645856 68.76126007 -11.58790434 68.20999157 -12.81933594 67.65869141 C-15.54591727 66.43843978 -18.27277419 65.21881036 -21 64 C-18.76402731 56.34346913 -16.30205385 48.77394806 -13.76953125 41.2109375 C-13.37424728 40.02650055 -12.97896332 38.8420636 -12.57170105 37.62173462 C-11.53218251 34.50779427 -10.49136568 31.39429209 -9.44989014 28.28100586 C-8.38279885 25.09005242 -7.31745472 21.89851579 -6.25195312 18.70703125 C-4.16955932 12.4708219 -2.08544972 6.23518804 0 0 Z " fill="#FFFFFF" transform="translate(38,0)"/>
</svg>
