<?xml version="1.0" encoding="UTF-8"?>
<svg version="1.1" xmlns="http://www.w3.org/2000/svg" width="199" height="190">
<path d="M0 0 C21.64393672 -0.62052571 43.01868584 7.52672521 59.13671875 21.90625 C60.4712007 23.22517854 61.74681646 24.60359548 63 26 C63.44988281 25.50371094 63.89976563 25.00742188 64.36328125 24.49609375 C78.37305288 9.70020267 98.02324365 2.23686518 118 0 C120.66793706 -0.04908656 123.33127381 -0.01740998 126 0 C126.83777231 6.79505221 127.67375862 13.5903225 128.50854492 20.38574219 C128.79232009 22.69406018 129.07649348 25.00232926 129.36108398 27.31054688 C129.77173679 30.64179692 130.18092369 33.97322437 130.58984375 37.3046875 C130.71592514 38.32488983 130.84200653 39.34509216 130.97190857 40.39620972 C131.73049619 46.59046692 132.40834047 52.78754821 133 59 C131.92105469 59.08636719 130.84210938 59.17273438 129.73046875 59.26171875 C106.08820086 61.38605782 82.95182427 67.57679015 65.71875 84.84765625 C64 86 64 86 62.0234375 85.90625 C59.52789741 84.78855637 58.06466207 83.36584108 56.125 81.4375 C38.92738287 65.80584475 15.45416586 61.06589724 -7 59 C-6.46732769 54.06018157 -5.93426487 49.12040548 -5.40087891 44.18066406 C-5.2204396 42.50912546 -5.0400971 40.8375764 -4.85986328 39.16601562 C-4.33200125 34.27075883 -3.80140501 29.37580866 -3.26867676 24.4810791 C-2.99496485 21.95350317 -2.72537226 19.42550849 -2.45605469 16.89746094 C-2.28071041 15.27277443 -2.10525885 13.64809949 -1.9296875 12.0234375 C-1.85090363 11.27438141 -1.77211975 10.52532532 -1.69094849 9.75357056 C-1.32922973 6.43392814 -0.94635976 3.20925758 0 0 Z " fill="#FFFFFF" transform="translate(37,80)"/>
<path d="M0 0 C0.74056641 0.00902344 1.48113281 0.01804687 2.24414062 0.02734375 C4.05873467 0.05075787 5.87316071 0.08662385 7.6875 0.125 C7.15555828 5.08320787 6.6224537 10.04128902 6.08837891 14.99926758 C5.90773895 16.67762058 5.72738926 18.35600486 5.54736328 20.03442383 C4.93608908 25.7322507 4.31589608 31.42903632 3.6875 37.125 C3.59754761 37.94542786 3.50759521 38.76585571 3.41491699 39.61114502 C3.15333422 41.98215807 2.88618464 44.35247424 2.6171875 46.72265625 C2.53840363 47.44110214 2.45961975 48.15954803 2.37844849 48.89976501 C1.80241872 53.89516256 1.80241872 53.89516256 0.6875 56.125 C1.81542969 56.06699219 2.94335938 56.00898438 4.10546875 55.94921875 C28.88261666 55.0836299 53.5345237 62.63410472 72.140625 79.42578125 C73.6875 81.125 73.6875 81.125 73.6875 83.125 C78.32937533 83.06632532 78.32937533 83.06632532 82.21875 80.81640625 C82.97671875 79.97916016 82.97671875 79.97916016 83.75 79.125 C97.01790842 64.7341951 119.09608782 57.16546783 138.28808594 55.96191406 C143.43017517 55.80609318 148.54891167 55.90398545 153.6875 56.125 C153.57680176 55.27494385 153.46610352 54.4248877 153.35205078 53.54907227 C152.11988257 44.07573738 150.89870465 34.60103797 149.6875 25.125 C149.56020508 24.13242188 149.43291016 23.13984375 149.30175781 22.1171875 C149.00780882 19.80796655 148.72062717 17.49806865 148.4375 15.1875 C148.21320313 13.37958984 148.21320313 13.37958984 147.984375 11.53515625 C147.65071774 7.70248801 147.6368432 3.97069508 147.6875 0.125 C150.08364126 0.07074774 152.47853853 0.03120973 154.875 0 C155.54853516 -0.01675781 156.22207031 -0.03351563 156.91601562 -0.05078125 C160.99605378 -0.0905865 164.12205613 0.09584648 167.6875 2.125 C168.63044739 4.58950806 168.63044739 4.58950806 169.08129883 7.73291016 C169.26110794 8.90818268 169.44091705 10.0834552 169.62617493 11.29434204 C169.88276131 13.20985367 169.88276131 13.20985367 170.14453125 15.1640625 C170.33732515 16.48752348 170.53198934 17.81071325 170.72843933 19.13363647 C171.13617829 21.91103878 171.52895725 24.68999042 171.90991211 27.47119141 C172.3957978 31.01795448 172.90606781 34.56060044 173.42619801 38.10248756 C173.92379279 41.49685082 174.40991602 44.89282554 174.89453125 48.2890625 C175.07570999 49.55392487 175.25688873 50.81878723 175.44355774 52.12197876 C177.66995638 68.32899091 177.66995638 68.32899091 175.32421875 72.6171875 C171.1659951 74.99507539 167.19024447 74.4521417 162.5 74.25 C142.64566207 73.84026344 123.99457479 77.02761157 105.4453125 84.171875 C102.6875 85.125 102.6875 85.125 99.6875 85.125 C99.460625 86.011875 99.23375 86.89875 99 87.8125 C96.64112163 93.76585971 92.03432774 96.8704092 86.6875 100.125 C79.77097081 102.43050973 71.89193373 102.13304901 65.25 99.125 C60.56739034 96.45140558 57.16224605 92.9336529 54.6875 88.125 C54.6875 87.135 54.6875 86.145 54.6875 85.125 C53.83542969 85.00769531 52.98335938 84.89039063 52.10546875 84.76953125 C48.5516469 84.09938199 45.39912162 83.04196952 42 81.8125 C27.97351538 76.94761799 13.1424439 73.92153579 -1.7265625 74.1796875 C-2.71358154 74.18967773 -3.70060059 74.19966797 -4.7175293 74.20996094 C-6.71145692 74.23628765 -8.70525071 74.27815842 -10.69848633 74.33691406 C-11.62169678 74.35206055 -12.54490723 74.36720703 -13.49609375 74.3828125 C-14.32681396 74.4048877 -15.15753418 74.42696289 -16.01342773 74.44970703 C-18.94666716 74.03543407 -20.17040298 73.15623291 -22.3125 71.125 C-23.91105434 63.3098753 -21.68839355 54.21163966 -20.51953125 46.43359375 C-20.33162521 45.16653091 -20.14371918 43.89946808 -19.95011902 42.5940094 C-19.55194039 39.93678235 -19.14980905 37.2804794 -18.74194336 34.62475586 C-18.22087099 31.22147628 -17.72901081 27.8146227 -17.24351978 24.40611172 C-16.77225297 21.14139118 -16.2687735 17.88163474 -15.76953125 14.62109375 C-15.59847366 13.39724472 -15.42741608 12.17339569 -15.25117493 10.91246033 C-15.07136581 9.78691238 -14.8915567 8.66136444 -14.70629883 7.50170898 C-14.55751785 6.50896469 -14.40873688 5.5162204 -14.25544739 4.49339294 C-13.3125 2.125 -13.3125 2.125 -10.97465515 0.80116272 C-7.30963568 -0.12971824 -3.75053884 -0.08714389 0 0 Z " fill="#FFFFFF" transform="translate(22.3125,88.875)"/>
<path d="M0 0 C-0.38671875 0.44988281 -0.7734375 0.89976563 -1.171875 1.36328125 C-6.812236 8.32996476 -10.88755689 16.51147422 -10.37890625 25.68359375 C-8.99284688 34.15713194 -5.6582076 41.44939593 1 47 C8.39538784 51.56941529 15.29593331 53.942056 24 53 C31.41376314 51.15709013 37.230963 47.95905759 43 43 C42.69288037 52.3671487 39.15820647 59.88574089 32.8125 66.8125 C24.35399491 74.58013382 13.80863195 78.56848974 2.3828125 78.25 C-8.32956372 77.12607856 -18.06710358 72.85385171 -25.4375 64.9375 C-31.88982184 56.93662092 -35.72389859 46.65550463 -35.28125 36.30859375 C-33.80050271 24.15412639 -28.7079225 14.53738893 -19.30859375 6.69140625 C-13.2777695 2.27288357 -7.52423728 -0.20900659 0 0 Z " fill="#FFFFFF" transform="translate(95,0)"/>
<path d="M0 0 C-0.020625 0.80824219 -0.04125 1.61648437 -0.0625 2.44921875 C-0.17412335 8.71325379 -0.17412335 8.71325379 2.84765625 13.83984375 C5.02561711 15.15289269 5.02561711 15.15289269 7.28515625 16.1328125 C8.13400391 16.56207031 8.13400391 16.56207031 9 17 C9 17.66 9 18.32 9 19 C7.98679688 19.15082031 7.98679688 19.15082031 6.953125 19.3046875 C4.0132905 19.9249416 1.65703989 20.57985799 -1 22 C-3.02709452 25.16287863 -4.08751687 28.37049622 -5 32 C-5.66 32 -6.32 32 -7 32 C-8.2890625 30.5390625 -8.2890625 30.5390625 -9.625 28.625 C-10.07101563 27.99851562 -10.51703125 27.37203125 -10.9765625 26.7265625 C-12 25 -12 25 -12 23 C-13.0209375 23.2475 -13.0209375 23.2475 -14.0625 23.5 C-17.4164822 24.07089059 -20.60389805 24.06659023 -24 24 C-22.53515625 21.4609375 -22.53515625 21.4609375 -21.0703125 18.921875 C-20.54050781 17.97054688 -20.54050781 17.97054688 -20 17 C-19.5978125 16.3709375 -19.195625 15.741875 -18.78125 15.09375 C-17.70127937 12.19942871 -18.38789627 10.63538014 -19.375 7.75 C-19.67148438 6.85796875 -19.96796875 5.9659375 -20.2734375 5.046875 C-20.51320313 4.37140625 -20.75296875 3.6959375 -21 3 C-19.783125 3.33 -18.56625 3.66 -17.3125 4 C-12.69805219 5.19289318 -12.69805219 5.19289318 -8 5 C-1.01393728 0 -1.01393728 0 0 0 Z " fill="#FFFFFF" transform="translate(127,6)"/>
</svg>
